# xmcd CD database file
#
# Track frame offsets:
#	150
#	21424
#	33192
#	64357
#	83205
#	106897
#	116590
#	132516
#	150149
#	171717
#	179556
#	197366
#	221531
#	235028
#	247765
#	266018
#	288664
#	293638
#
# Disc length: 4100 seconds
#
# Revision: 0
# Processed by: cddbd v1.5.2PL0 Copyright (c) Steve Scherf et al.
# Submitted via: CDex 1.70beta2
#
DISCID=02100212
DTITLE=Jana Koubková - Schooby dooby
DYEAR=2005
DGENRE=Jazz
TTITLE0=Ruven
TTITLE1=Madona z roští
TTITLE2=Nechtěj víc
TTITLE3=Blue rondo a la turk
TTITLE4=Dobrý den smutku
TTITLE5=Pohádka
TTITLE6=Netopýší sabat
TTITLE7=Krev mrazí
TTITLE8=Kebych bola jahodů
TTITLE9=Taneční
TTITLE10=Jen s jednou postelí
TTITLE11=Modlidba k sv. Rochovi
TTITLE12=Tanec pro Elišku
TTITLE13=Nahua mari
TTITLE14=Šošůvka na tři
TTITLE15=Zvláštní pán
TTITLE16=Tekutý
TTITLE17=Brčko
EXTD=YEAR: 2005
EXTT0=
EXTT1=
EXTT2=
EXTT3=
EXTT4=
EXTT5=
EXTT6=
EXTT7=
EXTT8=
EXTT9=
EXTT10=
EXTT11=
EXTT12=
EXTT13=
EXTT14=
EXTT15=
EXTT16=
EXTT17=
PLAYORDER=
